<?xml version="1.0" encoding="utf-8"?>
<!-- Generator: Adobe Illustrator 16.0.0, SVG Export Plug-In . SVG Version: 6.00 Build 0)  -->
<!DOCTYPE svg PUBLIC "-//W3C//DTD SVG 1.1//EN" "http://www.w3.org/Graphics/SVG/1.1/DTD/svg11.dtd">
<svg version="1.1" id="图层_1" xmlns="http://www.w3.org/2000/svg" xmlns:xlink="http://www.w3.org/1999/xlink" x="0px" y="0px"
	 width="32px" height="32px" viewBox="0 0 32 32" enable-background="new 0 0 32 32" xml:space="preserve">
<g>
	<path fill="#FFFFFF" d="M1.146,21.283V10.99c0-0.39,0.316-0.706,0.706-0.706h0.354c0.39,0,0.707,0.316,0.707,0.706v3.292
		c0,0.391,0.316,0.707,0.706,0.707h6.043c0.39,0,0.706-0.316,0.706-0.707V10.99c0-0.39,0.316-0.706,0.707-0.706h0.354
		c0.39,0,0.706,0.316,0.706,0.706v10.293c0,0.391-0.316,0.707-0.706,0.707h-0.354c-0.39,0-0.707-0.316-0.707-0.707v-3.818
		c0-0.391-0.316-0.707-0.706-0.707H3.618c-0.39,0-0.706,0.316-0.706,0.707v3.818c0,0.391-0.317,0.707-0.707,0.707H1.852
		C1.462,21.99,1.146,21.674,1.146,21.283z"/>
	<path fill="#FFFFFF" d="M13.389,21.518l-0.5-3.535c-0.156-1.104,0.561-2.143,1.648-2.39l4.291-0.971
		c0.344-0.077,0.67,0.184,0.67,0.536l0,0c0,0.252-0.172,0.473-0.418,0.532l-4.091,1.002c-0.142,0.034-0.265,0.125-0.34,0.251
		l-0.07,0.115c-0.225,0.377,0.061,0.854,0.5,0.83l1.893-0.1c0.314-0.016,0.578,0.234,0.578,0.549v0.066
		c0,0.271-0.198,0.502-0.468,0.543l-2.185,0.326c-0.301,0.045-0.508,0.328-0.461,0.629l0.082,0.523
		c0.042,0.268,0.271,0.465,0.542,0.465h3.946c0.304,0,0.549,0.246,0.549,0.549v0.002c0,0.303-0.245,0.549-0.549,0.549h-5.073
		C13.659,21.99,13.427,21.789,13.389,21.518z"/>
	<path fill="#FFFFFF" d="M23.913,15.588h-2.492c-0.256,0-0.463,0.208-0.463,0.463v4.342c0,0.256,0.207,0.463,0.463,0.463h2.492
		c0.255,0,0.462-0.207,0.462-0.463v-0.715c0-0.309,0.296-0.529,0.592-0.443l0,0c0.197,0.057,0.333,0.238,0.333,0.443v0.537
		c0,0.688-0.084,1.154-0.251,1.402c-0.167,0.25-0.484,0.373-0.95,0.373h-2.876c-0.466,0-0.78-0.119-0.944-0.359
		c-0.163-0.238-0.245-0.713-0.245-1.416v-3.959c0-0.699,0.083-1.171,0.248-1.417c0.166-0.245,0.479-0.369,0.941-0.369h2.876
		c0.466,0,0.783,0.126,0.95,0.377c0.167,0.252,0.251,0.721,0.251,1.409v0.35c0,0.212-0.144,0.396-0.349,0.449l0,0
		c-0.292,0.073-0.576-0.147-0.576-0.449v-0.555C24.375,15.796,24.168,15.588,23.913,15.588z"/>
	<path fill="#FFFFFF" d="M29.273,16.373h-2.322c-0.238,0-0.431,0.178-0.431,0.396v3.828c0,0.219,0.192,0.396,0.431,0.396h2.322
		c0.238,0,0.432-0.178,0.432-0.396v-0.645c0-0.266,0.276-0.457,0.553-0.381l0,0c0.184,0.051,0.309,0.205,0.309,0.381v0.479
		c0,0.604-0.078,1.014-0.234,1.232c-0.155,0.217-0.451,0.326-0.886,0.326h-2.679c-0.435,0-0.729-0.105-0.88-0.316
		c-0.152-0.209-0.229-0.623-0.229-1.242v-3.473c0-0.613,0.076-1.028,0.231-1.243c0.153-0.215,0.446-0.323,0.877-0.323h2.679
		c0.435,0,0.73,0.11,0.886,0.33c0.156,0.221,0.234,0.633,0.234,1.236v0.316c0,0.18-0.133,0.338-0.323,0.383l0,0
		c-0.272,0.065-0.538-0.124-0.538-0.383V16.77C29.705,16.551,29.512,16.373,29.273,16.373z"/>
	<path fill="#FFFFFF" d="M12.373,7.89c0-0.529-0.252-0.958-0.957-0.958c-0.705,0-0.958,0.428-0.958,0.958
		c0,0.529,0.253,0.958,0.958,0.958C12.121,8.847,12.373,8.418,12.373,7.89z"/>
	<path fill="#FFFFFF" d="M15.803,13.501c0.88,0.612,0.985,0.5,1.483,0.504c0.824,0.01,1.524-0.594,3.166-0.832
		c2.02-0.292,2.508,0.037,2.933,0.46c0.719,0.718,0.663,0.705,0.958,0.958c-0.479-1.197-1.676-2.633-2.696-2.811
		c-0.648-0.112-0.655-0.063-1.254,0.186c-0.995,0.412-1.739,1.829-3.231,0.71c-0.958-0.718-1.197-1.197-2.481-2.694
		c-0.44-0.512-1.271-1.39-1.828-0.897c-0.223,0.198-0.285,0.462-0.31,0.559C12.327,10.471,15.102,13.013,15.803,13.501z"/>
</g>
</svg>
