<?xml version="1.0" encoding="utf-8"?>
<!-- Generator: Adobe Illustrator 16.0.0, SVG Export Plug-In . SVG Version: 6.00 Build 0)  -->
<!DOCTYPE svg PUBLIC "-//W3C//DTD SVG 1.1//EN" "http://www.w3.org/Graphics/SVG/1.1/DTD/svg11.dtd">
<svg version="1.1" id="图层_1" xmlns="http://www.w3.org/2000/svg" xmlns:xlink="http://www.w3.org/1999/xlink" x="0px" y="0px"
	 width="99px" height="16px" viewBox="0 0 99 16" enable-background="new 0 0 99 16" xml:space="preserve">
<g>
	<polygon points="9.776,7.004 3.772,7.004 3.772,3.418 1.89,3.418 1.89,12.692 3.772,12.692 3.772,8.716 9.776,8.716 9.776,12.692 
		11.651,12.692 11.651,3.418 9.776,3.418 	"/>
	<polygon points="17.32,8.699 21.334,8.699 21.334,7.038 17.32,7.038 17.32,5.097 23.887,5.097 23.887,3.418 15.438,3.418 
		15.438,12.692 23.95,12.692 23.95,10.988 17.32,10.988 	"/>
	<path d="M33.43,3.418h-4.623c-0.83,0-1.391,0.168-1.713,0.515c-0.319,0.341-0.474,0.934-0.474,1.81v4.624
		c0,0.876,0.155,1.468,0.474,1.811c0.323,0.346,0.883,0.515,1.713,0.515h4.623c0.831,0,1.389-0.168,1.706-0.512
		c0.313-0.34,0.465-0.933,0.465-1.813V9.129l-1.882-0.418v2.261h-5.224V5.114h5.224v2.038l1.882-0.373V5.744
		c0-0.881-0.152-1.475-0.465-1.813C34.818,3.586,34.26,3.418,33.43,3.418z"/>
	<path d="M45.424,3.418h-4.623c-0.83,0-1.391,0.168-1.713,0.515c-0.319,0.341-0.474,0.934-0.474,1.81v4.624
		c0,0.876,0.155,1.468,0.474,1.811c0.323,0.346,0.883,0.515,1.713,0.515h4.623c0.831,0,1.389-0.168,1.706-0.512
		c0.313-0.34,0.465-0.933,0.465-1.813V9.129l-1.882-0.418v2.261h-5.224V5.114h5.224v2.038l1.882-0.373V5.744
		c0-0.881-0.152-1.475-0.465-1.813C46.813,3.586,46.255,3.418,45.424,3.418z"/>
	<path d="M57.371,7.063h-4.95V5.114h5.341v1.357l1.68-0.508V5.594c0-0.789-0.16-1.336-0.489-1.674
		c-0.332-0.338-0.887-0.502-1.698-0.502h-4.396c-0.831,0-1.39,0.169-1.708,0.517c-0.313,0.341-0.464,0.933-0.464,1.808v0.764
		c0,0.875,0.151,1.467,0.464,1.808c0.317,0.348,0.876,0.517,1.708,0.517h4.935v2.14h-5.646v-1.48l-1.78,0.438v0.438
		c0,0.876,0.154,1.468,0.473,1.811c0.324,0.347,0.885,0.515,1.714,0.515h4.817c0.826,0,1.382-0.168,1.699-0.512
		c0.313-0.339,0.464-0.932,0.464-1.813V9.379c0-0.876-0.154-1.467-0.474-1.806C58.736,7.229,58.184,7.063,57.371,7.063z"/>
	<polygon points="73.159,3.418 71.079,9.844 68.913,3.418 67.713,3.418 65.465,9.854 63.403,3.418 61.481,3.418 64.643,12.692 
		66.083,12.692 68.27,6.565 70.384,12.692 71.763,12.692 74.925,3.418 	"/>
	<path d="M79.475,3.418l-4.763,9.274h1.924l1.055-2.158h5.271l1.054,2.158H86.1l-4.846-9.274H79.475z M82.151,8.913h-3.638
		l1.815-3.676L82.151,8.913z"/>
	<path d="M96.524,3.892c-0.32-0.314-0.83-0.474-1.514-0.474h-6.903v9.274h1.882v-3.42h5.021c0.685,0,1.193-0.159,1.514-0.474
		c0.322-0.316,0.485-0.811,0.485-1.47V5.37C97.01,4.706,96.847,4.208,96.524,3.892z M89.989,5.056h4.482
		c0.346,0,0.472,0.08,0.515,0.126c0.047,0.051,0.126,0.19,0.126,0.545v1.22c0,0.354-0.079,0.494-0.125,0.544
		c-0.044,0.047-0.169,0.126-0.516,0.126h-4.482V5.056z"/>
</g>
</svg>
