<?xml version="1.0" encoding="utf-8"?>
<!-- Generator: Adobe Illustrator 16.0.0, SVG Export Plug-In . SVG Version: 6.00 Build 0)  -->
<!DOCTYPE svg PUBLIC "-//W3C//DTD SVG 1.1//EN" "http://www.w3.org/Graphics/SVG/1.1/DTD/svg11.dtd">
<svg version="1.1" id="图层_1" xmlns="http://www.w3.org/2000/svg" xmlns:xlink="http://www.w3.org/1999/xlink" x="0px" y="0px"
	 width="99px" height="16px" viewBox="0 0 99 16" enable-background="new 0 0 99 16" xml:space="preserve">
<g>
	<polygon fill="#FFFFFF" points="10.767,6.948 4.763,6.948 4.763,3.362 2.88,3.362 2.88,12.637 4.763,12.637 4.763,8.66 
		10.767,8.66 10.767,12.637 12.642,12.637 12.642,3.362 10.767,3.362 	"/>
	<polygon fill="#FFFFFF" points="18.311,8.644 22.325,8.644 22.325,6.981 18.311,6.981 18.311,5.042 24.878,5.042 24.878,3.362 
		16.429,3.362 16.429,12.637 24.94,12.637 24.94,10.933 18.311,10.933 	"/>
	<path fill="#FFFFFF" d="M34.42,3.362h-4.623c-0.83,0-1.391,0.169-1.713,0.516c-0.319,0.342-0.474,0.934-0.474,1.811v4.623
		c0,0.876,0.155,1.468,0.474,1.811c0.323,0.346,0.883,0.515,1.713,0.515h4.623c0.831,0,1.389-0.168,1.706-0.512
		c0.313-0.34,0.465-0.933,0.465-1.813V9.073l-1.882-0.418v2.261h-5.224V5.058h5.224v2.039l1.882-0.373V5.688
		c0-0.882-0.152-1.475-0.465-1.813C35.809,3.53,35.251,3.362,34.42,3.362z"/>
	<path fill="#FFFFFF" d="M46.415,3.362h-4.623c-0.83,0-1.391,0.169-1.713,0.516c-0.319,0.342-0.474,0.934-0.474,1.811v4.623
		c0,0.876,0.155,1.468,0.474,1.811c0.323,0.346,0.883,0.515,1.713,0.515h4.623c0.831,0,1.389-0.168,1.706-0.512
		c0.313-0.34,0.465-0.933,0.465-1.813V9.073l-1.882-0.418v2.261H41.48V5.058h5.224v2.039l1.882-0.373V5.688
		c0-0.882-0.151-1.475-0.465-1.813C47.804,3.53,47.246,3.362,46.415,3.362z"/>
	<path fill="#FFFFFF" d="M58.361,7.007h-4.949V5.058h5.34v1.357l1.68-0.508V5.538c0-0.788-0.16-1.336-0.488-1.674
		c-0.332-0.338-0.887-0.502-1.699-0.502H53.85c-0.832,0-1.391,0.17-1.709,0.518c-0.313,0.342-0.463,0.933-0.463,1.809v0.764
		c0,0.875,0.15,1.467,0.463,1.807c0.318,0.349,0.877,0.518,1.709,0.518h4.934v2.14h-5.645v-1.48l-1.781,0.438v0.438
		c0,0.876,0.154,1.468,0.473,1.811c0.324,0.347,0.885,0.515,1.715,0.515h4.816c0.826,0,1.383-0.168,1.699-0.512
		c0.313-0.339,0.465-0.932,0.465-1.813V9.323c0-0.876-0.154-1.467-0.475-1.807C59.727,7.174,59.174,7.007,58.361,7.007z"/>
	<polygon fill="#FFFFFF" points="74.15,3.362 72.07,9.788 69.904,3.362 68.703,3.362 66.455,9.798 64.395,3.362 62.473,3.362 
		65.633,12.637 67.074,12.637 69.26,6.509 71.375,12.637 72.754,12.637 75.916,3.362 	"/>
	<path fill="#FFFFFF" d="M80.465,3.362l-4.762,9.274h1.924l1.055-2.158h5.27l1.055,2.158h2.084l-4.846-9.274H80.465z M83.143,8.857
		h-3.639l1.816-3.677L83.143,8.857z"/>
	<path fill="#FFFFFF" d="M97.516,3.837c-0.32-0.314-0.83-0.475-1.514-0.475h-6.904v9.274h1.883v-3.42h5.021
		c0.684,0,1.193-0.159,1.514-0.474C97.838,8.427,98,7.933,98,7.273V5.314C98,4.649,97.838,4.153,97.516,3.837z M90.98,5h4.482
		c0.346,0,0.471,0.079,0.514,0.126c0.047,0.052,0.127,0.19,0.127,0.545v1.221c0,0.354-0.08,0.494-0.125,0.545
		c-0.045,0.047-0.17,0.126-0.516,0.126H90.98V5z"/>
</g>
</svg>
